<?xml version="1.0" standalone="no"?>
<!DOCTYPE svg PUBLIC "-//W3C//DTD SVG 20010904//EN"
 "http://www.w3.org/TR/2001/REC-SVG-20010904/DTD/svg10.dtd">
<svg version="1.0" xmlns="http://www.w3.org/2000/svg"
 width="427.000000pt" height="497.000000pt" viewBox="0 0 427.000000 497.000000"
 preserveAspectRatio="xMidYMid meet">

<g transform="translate(0.000000,497.000000) scale(0.100000,-0.100000)"
fill="#000000" stroke="none">
<path d="M2105 4450 c-281 -50 -574 -175 -815 -347 -453 -325 -744 -814 -816
-1370 -25 -191 -16 -510 19 -694 47 -242 124 -435 253 -632 93 -142 160 -221
316 -373 355 -346 741 -539 1190 -594 123 -16 392 -8 513 14 307 56 549 157
893 375 l162 103 0 849 0 849 -527 0 c-705 0 -904 -15 -933 -70 -17 -32 -11
-59 16 -77 62 -40 126 -45 697 -50 l547 -5 0 -700 0 -699 -240 -118 c-353
-175 -539 -235 -805 -262 -505 -50 -1003 144 -1402 549 -398 402 -583 885
-534 1391 45 461 268 912 595 1203 335 298 740 461 1182 475 206 7 331 -6 509
-52 214 -55 356 -121 571 -266 145 -98 239 -141 300 -137 42 3 49 6 52 25 10
72 -149 218 -378 348 -239 136 -576 243 -862 274 -148 17 -386 12 -503 -9z"/>
<path d="M2345 4079 c-481 -77 -795 -225 -1061 -501 -155 -161 -254 -313 -333
-514 -245 -613 -111 -1279 348 -1734 188 -187 368 -307 586 -393 208 -82 386
-112 615 -104 245 9 395 48 635 167 287 141 334 225 335 590 0 154 -17 601
-23 606 -1 1 -213 9 -472 18 -258 9 -505 19 -547 22 l-78 5 0 -305 0 -306 213
0 c186 0 278 -7 293 -23 21 -21 -119 -124 -208 -152 -32 -10 -102 -19 -178
-22 -113 -5 -135 -3 -224 21 -417 111 -744 471 -796 875 -20 158 6 322 79 490
51 120 92 187 170 278 116 137 295 251 486 309 84 26 103 28 275 28 164 1 194
-2 265 -22 96 -28 261 -106 404 -191 l105 -62 203 203 c112 111 203 206 203
210 0 12 -185 161 -269 216 -152 100 -487 233 -696 277 -97 21 -249 27 -330
14z m380 -227 c257 -57 496 -178 535 -271 26 -64 -28 -119 -103 -104 -18 3
-86 26 -151 50 -150 56 -255 79 -426 94 -279 23 -532 -17 -717 -116 -107 -57
-179 -113 -278 -216 -170 -178 -298 -433 -341 -679 -24 -138 -15 -343 20 -465
54 -187 189 -401 339 -536 158 -143 431 -304 582 -344 169 -44 479 -21 685 52
57 20 86 38 126 77 65 64 84 120 84 252 0 166 -11 174 -255 185 -174 8 -240
21 -259 52 -15 24 1 47 56 75 57 29 164 49 343 62 77 5 167 12 199 15 l59 5
-6 -312 c-6 -309 -16 -398 -47 -458 -63 -123 -179 -170 -510 -210 -285 -34
-414 -25 -600 43 -284 104 -491 235 -668 422 -242 256 -362 556 -362 905 0
279 77 528 239 772 120 181 265 328 441 448 158 107 299 168 475 206 98 21
128 24 280 20 119 -3 197 -11 260 -24z"/>
</g>
</svg>
